<svg width="512" height="512" viewBox="0 0 512 512" fill="none" xmlns="http://www.w3.org/2000/svg">
<rect x="4" y="4" width="504" height="504" rx="252" fill="#564351" style="fill:#564351;fill:color(display-p3 0.3373 0.2627 0.3176);fill-opacity:1;"/>
<rect x="4" y="4" width="504" height="504" rx="252" stroke="white" style="stroke:white;stroke-opacity:1;" stroke-width="8"/>
<g clip-path="url(#clip0_96_45)">
<path d="M441.121 297.601C436.649 270.591 425.371 248.475 403.938 232.116C385.804 218.285 364.94 212.01 342.482 211.11C320.987 210.26 299.468 210.198 277.949 210.062C275.293 210.05 271.513 210.851 270.191 212.676C267.745 216.078 269.771 224.671 272.464 227.062C275.219 229.515 278.085 231.87 280.654 234.508C289.227 243.372 292.773 254.121 291.55 266.276C290.487 276.816 285.361 285.15 275.787 289.958C252.65 301.583 208.685 298.895 190.477 264.649C181.212 247.23 181.644 228.961 188.34 211.012C196.122 190.141 204.868 169.615 213.404 149.028C213.948 147.722 216.319 146.476 217.888 146.427C225.609 146.156 233.354 146.218 241.087 146.341C244.274 146.39 246.498 145.392 246.609 142.014C246.733 138.316 244.386 137.255 240.988 137.329C234.429 137.453 227.87 137.391 221.322 137.354C217.406 137.329 212.811 131.856 213.812 128.047C215.64 121.082 217.641 114.153 219.914 107.336C220.334 106.066 222.36 105.314 223.645 104.328C224.139 104.649 224.633 104.969 225.127 105.29C225.127 109.111 224.732 112.982 225.3 116.73C225.559 118.493 227.66 119.972 228.92 121.587C230.192 119.984 232.551 118.394 232.564 116.779C232.65 107.225 232.354 97.6467 231.748 88.1051C231.662 86.6628 229.302 85.356 228.005 84C226.77 85.4547 224.732 86.7737 224.472 88.3886C223.929 91.7911 224.299 95.3414 224.299 99.3479C216.888 98.2631 215.146 103.169 213.873 108.84C212.959 112.921 211.44 116.853 210.415 120.909C209.266 125.47 208.154 129.316 202.632 131.215C199.84 132.176 197.777 136.553 196.307 139.807C185.313 164.08 174.504 188.44 163.72 212.811C159.792 221.7 156.16 230.723 152.231 239.612C149.687 245.356 149.884 250.756 153.813 255.699C167.685 273.167 181.471 290.685 195.628 307.919C202.546 316.351 212.045 319.593 222.916 319.606C253.515 319.643 284.113 319.84 314.712 320.099C318.171 320.123 319.925 319.113 321.531 315.846C327.596 303.493 338.047 297.699 351.648 297.65C379.22 297.552 406.792 297.613 434.364 297.613C436.34 297.601 438.329 297.601 441.121 297.601ZM382.073 287.455V287.468C371.499 287.468 360.863 286.753 350.363 287.64C334.909 288.947 323.483 269.062 325.249 257.721C326.781 247.908 333.995 241.892 346.163 239.945C377.28 234.976 405.495 251.261 420.837 279.085C424.111 285.027 422.653 287.369 415.822 287.431C404.568 287.529 393.327 287.455 382.073 287.455Z" fill="white" style="fill:white;fill-opacity:1;"/>
<path d="M197.131 335.434C197.403 334.744 197.477 334.596 197.514 334.448C199.626 326.349 196.909 321.011 190.979 314.465C175.044 296.849 160.887 277.63 146.162 258.954C144.655 257.043 143.704 254.528 143.037 252.149C142.295 249.474 141.171 248.044 138.207 247.526C113.896 243.248 82.1729 261.013 72.7722 284.534C78.2076 288.281 84.4706 289.095 90.8448 289.28C98.899 289.502 107.027 288.972 115.02 289.748C129.992 291.191 142.567 297.934 152.746 308.967C156.502 313.035 160.121 317.239 163.506 321.615C172.066 332.636 183.901 335.422 197.131 335.434Z" fill="white" style="fill:white;fill-opacity:1;"/>
<path d="M407.223 305.897C413.943 326.558 411.274 339.083 398.674 347.799C387.519 355.516 372.51 354.949 362.097 346.43C350.534 336.975 348.212 323.587 355.216 306.822C348.718 304.701 338.144 307.278 334.166 312.431C332.857 314.132 332.363 316.733 332.178 318.977C329.942 346.492 351.473 371.061 378.489 371.961C407.63 372.947 430.731 351.004 430.558 322.478C430.459 306.933 429.421 305.885 414.227 305.873C412.053 305.897 409.879 305.897 407.223 305.897Z" fill="white" style="fill:white;fill-opacity:1;"/>
<path d="M110.626 296.898C103.263 296.898 95.9009 296.787 88.5508 297.022C87.4637 297.059 86.0802 298.526 85.4008 299.66C67.8594 329.394 89.9837 370.112 124.609 371.924C147.512 373.12 168.018 360.102 174.318 340.427C169.118 336.581 163.942 332.735 158.692 328.852C154.146 343.521 144.869 352.964 128.439 353.051C115.567 353.125 106.018 346.887 101.027 335.225C94.8015 320.629 98.9891 308.092 110.626 296.898Z" fill="white" style="fill:white;fill-opacity:1;"/>
<path d="M400.566 219.444C399.813 208.213 397.169 198.4 389.399 190.671C383.84 185.136 376.601 185.58 369.498 185.814C349.375 186.492 329.252 187.084 309.141 187.774C301.099 188.045 293.02 188.07 285.028 188.92C276.937 189.783 272.737 194.024 271.229 201.618C275.911 201.618 280.531 201.507 285.151 201.643C307.128 202.259 329.128 202.604 351.08 203.738C366.842 204.552 381.703 209.298 395.588 216.892C397.009 217.669 398.491 218.384 400.566 219.444Z" fill="white" style="fill:white;fill-opacity:1;"/>
<path d="M366.409 322.835C366.347 330.898 372.894 337.567 380.985 337.678C389.348 337.801 396.278 331.033 396.143 322.885C396.019 314.761 389.484 308.363 381.269 308.326C373.092 308.301 366.47 314.761 366.409 322.835Z" fill="white" style="fill:white;fill-opacity:1;"/>
<path d="M113.939 322.75C113.84 330.997 120.103 337.555 128.219 337.703C136.459 337.851 143.093 331.601 143.266 323.502C143.451 314.922 137.2 308.388 128.726 308.326C120.425 308.252 114.05 314.478 113.939 322.75Z" fill="white" style="fill:white;fill-opacity:1;"/>
<path d="M163.203 141.595C163.203 142.26 163.129 142.951 163.215 143.604C163.845 148.301 163.351 154.144 168.366 156.228C173.678 158.447 185.438 151.161 187.86 145.318C190.034 140.091 188.181 134.174 182.017 130.919C177.619 128.601 172.356 127.899 167.477 126.469C166.044 131.005 164.599 135.542 163.19 140.078C163.055 140.535 163.166 141.077 163.166 141.582C163.19 141.595 163.19 141.595 163.203 141.595Z" fill="white" style="fill:white;fill-opacity:1;"/>
<path d="M446.57 296.874C446.694 296.972 446.817 297.145 446.965 297.169C457.762 298.957 459.257 297.589 458.096 286.79C457.898 284.977 457.564 283.141 456.984 281.415C454.859 275.029 447.67 273.18 442.815 277.778C442.247 278.32 442 279.652 442.197 280.465C443.568 285.951 445.088 291.4 446.57 296.874Z" fill="white" style="fill:white;fill-opacity:1;"/>
</g>
<defs>
<clipPath id="clip0_96_45">
<rect width="385.648" height="288" fill="white" style="fill:white;fill-opacity:1;" transform="translate(72.7754 84)"/>
</clipPath>
</defs>
</svg>
